<svg xmlns="http://www.w3.org/2000/svg" viewBox="0 0 778.89 729"><defs><style>.cls-1{fill:#fff;}.cls-12,.cls-2,.cls-5{fill:#231f20;}.cls-3{fill:#161e54;}.cls-4{fill:#f9931f;}.cls-12,.cls-5{font-size:30.84px;font-family:Lato-Semibold, Lato;font-weight:600;}.cls-5{letter-spacing:0.2em;}.cls-6{letter-spacing:0.21em;}.cls-7{letter-spacing:0.2em;}.cls-8{letter-spacing:0.14em;}.cls-9{letter-spacing:0.18em;}.cls-10{letter-spacing:0.21em;}.cls-11{letter-spacing:0.18em;}.cls-12{letter-spacing:0.2em;}.cls-13{letter-spacing:0.19em;}.cls-14{letter-spacing:0.17em;}.cls-15{letter-spacing:0.15em;}</style></defs><g id="Layer_2" data-name="Layer 2"><g id="Layer_1-2" data-name="Layer 1"><rect class="cls-1" width="778.89" height="729" rx="79.48"/><path class="cls-2" d="M702.35,418.91,728,435.32V288.75a24.25,24.25,0,0,0-24.25-24.25H461.3l25.11,16.09,34.29,22H672.42v97.19l4.4,2.83Z"/><path class="cls-3" d="M705.7,440.9h-227a29.57,29.57,0,0,1-29.51-29.6V309.62a30.21,30.21,0,0,1,1-7.6l.12-.44a29.65,29.65,0,0,1,11.22-16l.32-.24.21-.14,16.45,10.51,9.2,5.88.69.44,8.73,5.58a20.36,20.36,0,0,0-7,15.39v81c0,.6,0,1.2.08,1.78v0a20.38,20.38,0,0,0,13,17.23H677.62v0l0,0,2.25,1.43h.17l24.76,15.92Z"/><polygon class="cls-3" points="702.35 418.91 702.35 280.59 486.41 280.59 520.7 302.55 672.42 302.55 672.42 312.42 672.42 399.74 676.82 402.56 702.35 418.91"/><path class="cls-2" d="M724.05,452.28c-.23.35-.46.7-.72,1a24.11,24.11,0,0,1-19.61,10H74.18a24.24,24.24,0,0,1-24.24-24.24V288.32a24.25,24.25,0,0,1,24.24-24.25H428.64l30.76,19.6.68.43,2.24,1.43,15.91,10.13,9.19,5.86H117.75V422.61h555.1v0l0,0h4.58l0,0,.66.42,21.59,13.75,4.88,3.12.68.43.18.11,0,0,.64.4Z"/><polygon class="cls-1" points="704.63 439.92 69.97 439.92 69.97 284.11 460.08 284.11 462.32 285.53 478.23 295.66 487.42 301.52 117.75 301.52 117.75 422.61 672.85 422.61 672.85 422.58 672.9 422.61 677.48 422.61 677.5 422.63 678.16 423.05 699.75 436.8 704.63 439.92"/><path class="cls-4" d="M704.51,439.92l-.67-.44L699,436.37l-21.58-13.76H117.75V301.52H487.42l-9.19-5.86L462,285.32l-.23-.14-2.35-1.51H69.54V440.46H705.36Z"/><text class="cls-5" transform="translate(93.8 500.13) scale(1.19 1)">E<tspan class="cls-6" x="23.83" y="0">Q</tspan><tspan class="cls-7" x="55.18" y="0">U</tspan><tspan class="cls-8" x="84" y="0">A</tspan><tspan class="cls-9" x="109.54" y="0">T</tspan><tspan class="cls-10" x="133.58" y="0">ORIA</tspan><tspan class="cls-11" x="234.21" y="0">L</tspan><tspan class="cls-6" x="255.76" y="0"> </tspan></text><text class="cls-12" transform="translate(422.62 499.86) scale(1.28 1)">P<tspan class="cls-13" x="24.84" y="0">R</tspan><tspan x="50.18" y="0">OPE</tspan><tspan class="cls-14" x="129.64" y="0">R</tspan><tspan x="154.59" y="0">T</tspan><tspan class="cls-15" x="178.97" y="0">Y</tspan><tspan x="203.37" y="0"> </tspan></text></g></g></svg>