<svg xmlns="http://www.w3.org/2000/svg" viewBox="0 0 1564.07 581.28"><defs><style>.cls-1,.cls-12,.cls-6{fill:#231f20;}.cls-2{fill:#f9931f;}.cls-3{fill:#fff;}.cls-4{fill:none;}.cls-5{fill:#161e54;}.cls-12,.cls-6{font-size:71.15px;font-family:Lato-Semibold, Lato;font-weight:600;}.cls-6{letter-spacing:0.2em;}.cls-7{letter-spacing:0.21em;}.cls-8{letter-spacing:0.2em;}.cls-9{letter-spacing:0.14em;}.cls-10{letter-spacing:0.18em;}.cls-11{letter-spacing:0.18em;}.cls-12{letter-spacing:0.19em;}.cls-13{letter-spacing:0.19em;}.cls-14{letter-spacing:0.2em;}.cls-15{letter-spacing:0.17em;}.cls-16{letter-spacing:0.15em;}</style></defs><g id="Layer_2" data-name="Layer 2"><g id="Layer_1-2" data-name="Layer 1"><path class="cls-1" d="M1555,434.17c-.53.81-1.07,1.61-1.64,2.39a55.81,55.81,0,0,1-45.26,23.08H55.93A55.93,55.93,0,0,1,0,403.71V55.93A55.93,55.93,0,0,1,55.93,0H873.6l71,45.21,1.57,1H46.21V405.64H1510.26l1.57,1,.41.26,0,0,1.49.95Z"/><path class="cls-1" d="M1505,357.19l59.09,37.86V56.93A55.93,55.93,0,0,0,1508.14,1H948.93l57.92,37.1L1086,88.77h350V313l10.16,6.51Z"/><path class="cls-2" d="M1435.13,365.72h12.23l49.78,31.74,11.27,7.18,1.57,1,2,1.24v0H45.21V45.21H944.6L950,48.68l.53.34L988,72.87l21.21,13.52H156.43V365.72h1278.7Z"/><path class="cls-3" d="M1446.1,137.47v182L1435.94,313V111.54A38.21,38.21,0,0,1,1446.1,137.47Z"/><polygon class="cls-3" points="1513.78 365.71 1513.78 366.72 1511.93 366.72 1511.93 364.53 1513.78 365.71"/><polygon class="cls-4" points="1513.78 367.72 1511.93 367.72 1511.93 365.66 1513.78 366.85 1513.78 367.72"/><path class="cls-5" d="M1511.93,406.93H989.72a67.68,67.68,0,0,1-57.93-32.6,66.85,66.85,0,0,1-4.43-8.58,67.92,67.92,0,0,1-5.51-26.91V104.91a68.46,68.46,0,0,1,2.25-17.47l.27-1a68.27,68.27,0,0,1,25.8-36.84l.75-.53.48-.34L989.25,72.9l21.16,13.52,1.59,1,20.09,12.84A46.76,46.76,0,0,0,1016,135.67V322c0,1.38.06,2.74.17,4.09a.06.06,0,0,0,0,0A46.84,46.84,0,0,0,1046,365.75h401.31v-.08l.13.08,5.18,3.31h.38l57,36.61Z"/><polygon class="cls-5" points="1504.98 357.19 1504.98 38.1 1006.85 38.1 1085.95 88.77 1435.94 88.77 1435.94 111.54 1435.94 312.97 1446.1 319.48 1504.98 357.19"/><line class="cls-4" x1="1564.07" y1="395.05" x2="1504.98" y2="357.19"/><text class="cls-6" transform="translate(80.17 561.54) scale(1.19 1)">E<tspan class="cls-7" x="54.96" y="0">Q</tspan><tspan class="cls-8" x="127.29" y="0">U</tspan><tspan class="cls-9" x="193.78" y="0">A</tspan><tspan class="cls-10" x="252.69" y="0">T</tspan><tspan class="cls-7" x="308.15" y="0">ORIA</tspan><tspan class="cls-11" x="540.28" y="0">L</tspan><tspan class="cls-7" x="589.98" y="0"> </tspan></text><text class="cls-12" transform="translate(838.7 560.92) scale(1.28 1)">P<tspan class="cls-13" x="57.31" y="0">R</tspan><tspan class="cls-14" x="115.76" y="0">OPE</tspan><tspan class="cls-15" x="299.04" y="0">R</tspan><tspan x="356.61" y="0">T</tspan><tspan class="cls-16" x="412.85" y="0">Y</tspan><tspan x="469.13" y="0"> </tspan></text></g></g></svg>