<svg xmlns="http://www.w3.org/2000/svg" viewBox="0 0 1565.07 565.84"><defs><style>.cls-1,.cls-7{font-size:71.15px;font-family:Lato-Semibold, Lato;font-weight:600;}.cls-1,.cls-12,.cls-7{fill:#231f20;}.cls-1{letter-spacing:0.2em;}.cls-2{letter-spacing:0.21em;}.cls-3{letter-spacing:0.2em;}.cls-4{letter-spacing:0.14em;}.cls-5{letter-spacing:0.18em;}.cls-6{letter-spacing:0.18em;}.cls-7{letter-spacing:0.19em;}.cls-8{letter-spacing:0.19em;}.cls-9{letter-spacing:0.2em;}.cls-10{letter-spacing:0.17em;}.cls-11{letter-spacing:0.15em;}.cls-13{fill:#6d6e71;}.cls-14{fill:#fff;}.cls-15{fill:none;}.cls-16{fill:#939598;}.cls-17{fill:#a7a9ac;}</style></defs><g id="Layer_2" data-name="Layer 2"><g id="Layer_1-2" data-name="Layer 1"><text class="cls-1" transform="translate(106.21 546.1) scale(1.19 1)">E<tspan class="cls-2" x="54.96" y="0">Q</tspan><tspan class="cls-3" x="127.29" y="0">U</tspan><tspan class="cls-4" x="193.78" y="0">A</tspan><tspan class="cls-5" x="252.69" y="0">T</tspan><tspan class="cls-2" x="308.15" y="0">ORIA</tspan><tspan class="cls-6" x="540.28" y="0">L</tspan><tspan class="cls-2" x="589.98" y="0"> </tspan></text><text class="cls-7" transform="translate(864.74 545.48) scale(1.28 1)">P<tspan class="cls-8" x="57.31" y="0">R</tspan><tspan class="cls-9" x="115.76" y="0">OPE</tspan><tspan class="cls-10" x="299.04" y="0">R</tspan><tspan x="356.61" y="0">T</tspan><tspan class="cls-11" x="412.85" y="0">Y</tspan><tspan x="469.13" y="0"> </tspan></text><path class="cls-12" d="M1555,434.17c-.53.81-1.07,1.61-1.64,2.39a55.81,55.81,0,0,1-45.26,23.08H55.93A55.93,55.93,0,0,1,0,403.71V55.93A55.93,55.93,0,0,1,55.93,0H873.6l71,45.21,1.57,1H46.21V405.64H1510.26l1.57,1,.41.26,0,0,1.49.95Z"/><path class="cls-12" d="M1506,357.19l59.09,37.86V56.93A55.93,55.93,0,0,0,1509.14,1H949.93l57.92,37.1L1087,88.77h350V313l10.16,6.51Z"/><path class="cls-13" d="M1435.14,365.72h12.23l49.78,31.74,11.26,7.18,1.57,1,2,1.24v0H45.21V45.21h899.4l5.44,3.47.53.34L988,72.87l21.21,13.52H156.44V365.72h1278.7Z"/><polygon class="cls-14" points="1513.78 365.71 1513.78 366.72 1511.93 366.72 1511.93 364.53 1513.78 365.71"/><polygon class="cls-15" points="1513.78 367.72 1511.93 367.72 1511.93 365.66 1513.78 366.85 1513.78 367.72"/><path class="cls-16" d="M1511.93,406.93H989.73a67.7,67.7,0,0,1-57.94-32.6,66.79,66.79,0,0,1-4.42-8.58,67.93,67.93,0,0,1-5.52-26.91V104.91a68.91,68.91,0,0,1,2.25-17.47c.1-.34.19-.68.28-1a68.21,68.21,0,0,1,25.8-36.84c.25-.18.49-.36.75-.53a5.85,5.85,0,0,1,.48-.34L989.26,72.9l21.15,13.52,1.6,1,20.09,12.84A46.76,46.76,0,0,0,1016,135.67V322c0,1.38.06,2.74.17,4.09a.06.06,0,0,0,0,0A46.85,46.85,0,0,0,1046,365.75h401.31v-.08l.12.08,5.18,3.31h.39l57,36.61Z"/><polygon class="cls-17" points="1506.86 360.71 1506.86 36.58 1000.85 36.58 1081.2 88.05 1436.72 88.05 1436.72 111.18 1436.72 315.79 1447.05 322.41 1506.86 360.71"/><line class="cls-15" x1="1564.07" y1="395.05" x2="1504.98" y2="357.19"/></g></g></svg>