<svg xmlns="http://www.w3.org/2000/svg" viewBox="0 0 1564.07 564.28"><defs><style>.cls-1,.cls-12,.cls-6{fill:#231f20;}.cls-2{fill:#fff;}.cls-3{fill:#f9931f;}.cls-4{fill:none;}.cls-5{fill:#161e54;}.cls-12,.cls-6{font-size:71.15px;font-family:Lato-Semibold, Lato;font-weight:600;}.cls-6{letter-spacing:0.2em;}.cls-7{letter-spacing:0.21em;}.cls-8{letter-spacing:0.2em;}.cls-9{letter-spacing:0.14em;}.cls-10{letter-spacing:0.18em;}.cls-11{letter-spacing:0.18em;}.cls-12{letter-spacing:0.19em;}.cls-13{letter-spacing:0.19em;}.cls-14{letter-spacing:0.2em;}.cls-15{letter-spacing:0.17em;}.cls-16{letter-spacing:0.15em;}</style></defs><g id="Layer_2" data-name="Layer 2"><g id="Layer_1-2" data-name="Layer 1"><path class="cls-1" d="M951.29,49.5l-5.16-3.29-1.57-1L873.6,0H55.93A55.93,55.93,0,0,0,0,55.93V403.71a55.93,55.93,0,0,0,55.93,55.93H1508.14a55.81,55.81,0,0,0,45.26-23.08c.57-.78,1.11-1.58,1.64-2.39l-41.26-26.29-1.49-.95,0,0-.41-.26-1.57-1L1499,398.46l-49.81-31.74-1.52-1-.05,0h-10.55l-.12-.08v.08H1045a46.7,46.7,0,0,1-29.17-39.63.06.06,0,0,1,0,0,45.27,45.27,0,0,1-1.17-10.29V134.35a45.46,45.46,0,0,1,15.76-34.46l-19.62-12.5-1.57-1Z"/><path class="cls-1" d="M1505,357.19l59.09,37.86V56.93A55.93,55.93,0,0,0,1508.14,1H948.93l57.92,37.1L1086,88.77h350V313l10.16,6.51Z"/><path class="cls-2" d="M951.29,49.5l-5.16-3.29H46.21V405.64H1510.26L1499,398.46l-49.81-31.74-1.52-1-.05,0h-10.55l-.12-.08v.08H1045a46.7,46.7,0,0,1-29.17-39.63.06.06,0,0,1,0,0,45.27,45.27,0,0,1-1.17-10.29V134.35a45.46,45.46,0,0,1,15.76-34.46l-19.62-12.5-1.57-1Z"/><path class="cls-3" d="M1435.13,365.72h12.24l49.78,31.74,11.26,7.18,1.57,1,2,1.24v0H45.21V45.21h899.4l5.44,3.47.53.34L988,72.87l21.21,13.52H156.44V365.72H1435.13Z"/><path class="cls-2" d="M1446.1,137.47v182L1435.94,313V111.54A38.21,38.21,0,0,1,1446.1,137.47Z"/><polygon class="cls-2" points="1513.78 365.71 1513.78 366.72 1511.93 366.72 1511.93 364.53 1513.78 365.71"/><polygon class="cls-4" points="1513.78 367.72 1511.93 367.72 1511.93 365.66 1513.78 366.85 1513.78 367.72"/><path class="cls-5" d="M1512.73,407.9H989.11a68.19,68.19,0,0,1-68.06-68.27V105.06a68.91,68.91,0,0,1,2.26-17.52c.09-.34.18-.68.28-1a68.43,68.43,0,0,1,25.87-36.94c.24-.18.49-.36.75-.53a5.85,5.85,0,0,1,.48-.34L988.64,73l21.21,13.55,1.6,1,20.14,12.88a46.9,46.9,0,0,0-16.17,35.49V322.73c0,1.38.06,2.75.17,4.1a.06.06,0,0,0,0,0,47,47,0,0,0,29.95,39.74h402.39v-.08l.12.08,5.2,3.32h.39l57.12,36.71Z"/><polygon class="cls-5" points="1504.98 357.19 1504.98 38.1 1006.85 38.1 1085.95 88.77 1435.94 88.77 1435.94 111.54 1435.94 312.97 1446.1 319.48 1504.98 357.19"/><line class="cls-4" x1="1564.07" y1="395.05" x2="1504.98" y2="357.19"/><text class="cls-6" transform="translate(106.18 544.54) scale(1.19 1)">E<tspan class="cls-7" x="54.96" y="0">Q</tspan><tspan class="cls-8" x="127.29" y="0">U</tspan><tspan class="cls-9" x="193.78" y="0">A</tspan><tspan class="cls-10" x="252.69" y="0">T</tspan><tspan class="cls-7" x="308.15" y="0">ORIA</tspan><tspan class="cls-11" x="540.28" y="0">L</tspan><tspan class="cls-7" x="589.98" y="0"> </tspan></text><text class="cls-12" transform="translate(864.7 543.92) scale(1.28 1)">P<tspan class="cls-13" x="57.31" y="0">R</tspan><tspan class="cls-14" x="115.76" y="0">OPE</tspan><tspan class="cls-15" x="299.04" y="0">R</tspan><tspan x="356.61" y="0">T</tspan><tspan class="cls-16" x="412.85" y="0">Y</tspan><tspan x="469.13" y="0"> </tspan></text></g></g></svg>