<svg xmlns="http://www.w3.org/2000/svg" viewBox="0 0 1600.45 559.64"><defs><style>.cls-1,.cls-10,.cls-3{fill:#231f20;}.cls-2{fill:#fff;}.cls-10,.cls-3{font-size:76.19px;font-family:Lato-Semibold, Lato;font-weight:600;}.cls-3{letter-spacing:0.2em;}.cls-4{letter-spacing:0.21em;}.cls-5{letter-spacing:0.2em;}.cls-6{letter-spacing:0.14em;}.cls-7{letter-spacing:0.18em;}.cls-8{letter-spacing:0.18em;}.cls-9{letter-spacing:0.21em;}.cls-10{letter-spacing:0.19em;}.cls-11{letter-spacing:0.19em;}.cls-12{letter-spacing:0.2em;}.cls-13{letter-spacing:0.17em;}.cls-14{fill:#414042;}.cls-15{fill:none;}</style></defs><g id="Layer_2" data-name="Layer 2"><g id="Layer_1-2" data-name="Layer 1"><path class="cls-1" d="M951.29,49.5l-5.16-3.29-1.57-1L873.6,0H55.93A55.93,55.93,0,0,0,0,55.93V403.71a55.93,55.93,0,0,0,55.93,55.93H1508.14a55.81,55.81,0,0,0,45.26-23.08c.57-.78,1.11-1.58,1.64-2.39l-41.26-26.29-1.49-.95,0,0-.41-.26-1.57-1L1499,398.46l-49.81-31.74-1.52-1-.05,0h-10.55l-.12-.08v.08H1045a46.7,46.7,0,0,1-29.17-39.63.06.06,0,0,1,0,0,45.27,45.27,0,0,1-1.17-10.29V134.35a45.46,45.46,0,0,1,15.76-34.46l-19.62-12.5-1.57-1Z"/><path class="cls-1" d="M1505,357.19l59.09,37.86V56.93A55.93,55.93,0,0,0,1508.14,1H948.93l57.92,37.1L1086,88.77h350V313l10.16,6.51Z"/><path class="cls-2" d="M951.29,49.5l-5.16-3.29H46.21V405.64H1510.26L1499,398.46l-49.81-31.74-1.52-1-.05,0h-10.55l-.12-.08v.08H1045a46.7,46.7,0,0,1-29.17-39.63.06.06,0,0,1,0,0,45.27,45.27,0,0,1-1.17-10.29V134.35a45.46,45.46,0,0,1,15.76-34.46l-19.62-12.5-1.57-1Z"/><text class="cls-3" transform="translate(31.67 538.5) scale(1.19 1)">E<tspan class="cls-4" x="58.85" y="0">Q</tspan><tspan class="cls-5" x="136.3" y="0">U</tspan><tspan class="cls-6" x="207.49" y="0">A</tspan><tspan class="cls-7" x="270.57" y="0">T</tspan><tspan class="cls-4" x="329.96" y="0">ORIA</tspan><tspan class="cls-8" x="578.51" y="0">L</tspan><tspan class="cls-9" x="631.73" y="0"> </tspan></text><text class="cls-10" transform="translate(796.76 537.84) scale(1.28 1)">P<tspan class="cls-11" x="61.37" y="0">R</tspan><tspan class="cls-12" x="123.95" y="0">OPE</tspan><tspan class="cls-13" x="320.21" y="0">R</tspan><tspan class="cls-12" x="381.84" y="0">TIES </tspan></text><path class="cls-14" d="M1435.13,365.72h12.24l49.78,31.74,11.26,7.18,1.57,1,2,1.24v0H45.21V45.21h899.4l5.44,3.47.53.34L988,72.87l21.21,13.52H156.44V365.72H1435.13Z"/><path class="cls-2" d="M1446.1,137.47v182L1435.94,313V111.54A38.21,38.21,0,0,1,1446.1,137.47Z"/><polygon class="cls-2" points="1513.78 365.71 1513.78 366.72 1511.93 366.72 1511.93 364.53 1513.78 365.71"/><polygon class="cls-15" points="1513.78 367.72 1511.93 367.72 1511.93 365.66 1513.78 366.85 1513.78 367.72"/><path class="cls-14" d="M1511.93,406.93H989.73a67.7,67.7,0,0,1-57.94-32.6,66.79,66.79,0,0,1-4.42-8.58,67.93,67.93,0,0,1-5.52-26.91V104.91a68.91,68.91,0,0,1,2.25-17.47c.09-.34.19-.68.28-1a68.21,68.21,0,0,1,25.8-36.84c.24-.18.49-.36.75-.53a5.85,5.85,0,0,1,.48-.34L989.26,72.9l21.15,13.52,1.6,1,20.09,12.84A46.76,46.76,0,0,0,1016,135.67V322c0,1.38.06,2.74.17,4.09a.06.06,0,0,0,0,0A46.85,46.85,0,0,0,1046,365.75h401.31v-.08l.12.08,5.18,3.31h.39l57,36.61Z"/><polygon class="cls-14" points="1504.98 357.19 1504.98 38.1 1006.85 38.1 1085.95 88.77 1435.94 88.77 1435.94 111.54 1435.94 312.97 1446.1 319.48 1504.98 357.19"/><line class="cls-15" x1="1564.07" y1="395.05" x2="1504.98" y2="357.19"/></g></g></svg>